<?xml version="1.0" encoding="utf-8"?>
<!-- Generator: Adobe Illustrator 22.0.0, SVG Export Plug-In . SVG Version: 6.00 Build 0)  -->
<svg version="1.1" id="图层_1" xmlns="http://www.w3.org/2000/svg" xmlns:xlink="http://www.w3.org/1999/xlink" x="0px" y="0px"
     viewBox="0 0 620 440" style="enable-background:new 0 0 620 440;" xml:space="preserve">
<style type="text/css">
	.st0{fill:#A18DD2;stroke:#68472F;stroke-width:2.4097;stroke-linecap:round;stroke-linejoin:round;stroke-miterlimit:10;}
	.st1{fill:#FFC099;stroke:#68472F;stroke-width:2.4097;stroke-linecap:round;stroke-linejoin:round;stroke-miterlimit:10;}
	.st2{fill:#567474;stroke:#68472F;stroke-width:2.4097;stroke-linecap:round;stroke-linejoin:round;stroke-miterlimit:10;}
	.st3{fill:#668988;stroke:#68472F;stroke-width:2.4097;stroke-linecap:round;stroke-linejoin:round;stroke-miterlimit:10;}
	.st4{fill:#FBA983;stroke:#68472F;stroke-width:2.4097;stroke-linecap:round;stroke-linejoin:round;stroke-miterlimit:10;}
	.st5{fill:#F7EFDC;stroke:#68472F;stroke-width:2.4097;stroke-linecap:round;stroke-linejoin:round;stroke-miterlimit:10;}
	.st6{fill:#FCF9EE;stroke:#68472F;stroke-width:2.4097;stroke-linecap:round;stroke-linejoin:round;stroke-miterlimit:10;}
	.st7{fill:#FFFFFF;stroke:#68472F;stroke-width:2.4097;stroke-linecap:round;stroke-linejoin:round;stroke-miterlimit:10;}
	.st8{fill:#DD6D4E;stroke:#68472F;stroke-width:2.4097;stroke-linecap:round;stroke-linejoin:round;stroke-miterlimit:10;}
	.st9{fill:#CF5D43;stroke:#68472F;stroke-width:2.4097;stroke-linecap:round;stroke-linejoin:round;stroke-miterlimit:10;}
	.st10{fill:#68472F;}
	.st11{fill:none;stroke:#68472F;stroke-width:2.4097;stroke-linecap:round;stroke-linejoin:round;stroke-miterlimit:10;}
	.st12{fill:#68472F;stroke:#68472F;stroke-width:2.4097;stroke-miterlimit:10;}
	.st13{fill:#F8C3A7;stroke:#68472F;stroke-width:2.4097;stroke-miterlimit:10;}
	.st14{fill:none;stroke:#68472F;stroke-width:2.4097;stroke-linecap:round;stroke-miterlimit:10;}
</style>
    <g>
	<g>
		<path class="st0" d="M252,331.7c0,0,10.7,7.7,22.2,8c11.4,0.3,30.4-3.9,35.3-4s36-65.3,36-65.3v-6.4h-58.7
			c0,0-26.8,16.7-34.8,28.9c-8,12.2-10.2,20.4-9.8,23.3C242.6,318.9,252,331.7,252,331.7z"/>
        <path class="st1" d="M361.5,245.2c0.6,6.6,1.6,14.9,0.7,15.9c0,0.1-0.1,0.1-0.2,0.2l-1.3-0.2l-1.8-14.1l-0.1-0.9l2.5-2.5
			l17.8-17.4l14.8-4.1L361.5,245.2z"/>
        <path class="st0" d="M284.4,317.2c0,0,4.4,26.4,22.5,34.2c0,0,5.3,3.2,9,0l3.2-6.3l-10.6-24.2l-17.2-6.8L284.4,317.2z"/>
        <path class="st1" d="M301.6,320.8c0,0-15.3,8.5-18.7,10.2c-3.4,1.7-4.6,4.6-4.6,4.6l5.1,13.1l33-13.9l-5.6-11L301.6,320.8z"/>
        <path class="st2" d="M278.3,330.9c0,0-14.3,5.3-17.5,6.1s-5.8,1.7-9,1.9c-3.2,0.2-8.2-1.2-11.6,0c-3.4,1.2-8.7-4.1-13.8,3.5
			c-5.1,7.6-9,18.8-2.7,22.9c6.3,4.1,10.9-4.4,24-7.5c13.1-3.2,38.8-7.6,40.7-9.1c1.9-1.5,1.3-2.8,1.3-2.8s-7.4-8.4-6.9-15
			C282.9,330.9,280.5,330.1,278.3,330.9z"/>
        <path class="st1" d="M242.2,304l11.7,28l15.4,2.9l0.4-7.8c0,0-4.5-22.5-4.8-23.1C264.4,303.4,242.2,304,242.2,304z"/>
        <path class="st3" d="M252.1,327.8c0,0-3.9,1.5-1.4,4.6c2.4,3.1,7.9,15.1-3,20.4c-2.7,1.3-12,10.4-17.1,12.6
			c-5.1,2.2-10.2,4.8-11.2,8c-1.2,4.4,13.3,10.8,30,5.5c12.5-4,10.2-6.4,16.2-11.2c2-1.6,8.7-4.5,9.8-5.4c8.9-7.5-1.4-17.8-2.3-25.4
			c-1-7.6,0.9-12.4-4-12.2c0,0,4.2,7.7-10.1,7.1C252.3,331.5,252.1,327.8,252.1,327.8z"/>
        <path class="st4" d="M346.7,128.7c0,0-4.5-9.3-15.6-8c-2.3,0.3-31.6,1.8-31.6,1.8s-8,6.5-9.1,7.3c-1.1,0.7,14.2,30.2,14.2,30.2
			l11.6,13.5l8.4,1.5l16.4-13.8L346.7,128.7z"/>
        <path class="st5" d="M373.1,202.9c0,0-12,30.5-12,36.4c0,1.2,0.1,2.7,0.2,4.3c0,0.5,0.1,1,0.1,1.6c0.6,6.6,1.6,14.9,0.7,15.9
			c0,0.1-0.1,0.1-0.2,0.2c-1.3,2-5.5,10.7-16.9,11c-12,0.4-57.5-4-57.5-4l-21.8-20.7l-16.3-51.9c0,0,1.6-8,12.9-25.8
			s28.9-29.8,34.7-32.4c5.8-2.5,6.2-2.4,6.2-2.4l-0.2,0.1c-2.4,38.7,46.2,20.4,39.6,3.6c-1.5-3.7-6-5.4-6-5.4s-0.7-1.2,14.6,11.8
			c10.3,8.8,24.3,24.8,29.8,34.4c2.6,4.6,4.2,7.7,4.2,7.7L373.1,202.9z"/>
        <polygon class="st6" points="354.2,196.6 387,168.3 391.6,181.4 364.9,199.5 		"/>
        <polygon class="st7" points="353.7,196.9 309.4,178.4 309.4,188.1 352,201.7 		"/>
        <polygon class="st8" points="354.2,196.6 357.1,248.3 308.2,230.1 304.3,180.9 		"/>
        <polygon class="st9" points="396.7,170 396.2,220.6 394,222.1 361.5,245.2 358.9,247 357.1,248.3 354.2,196.6 381.2,179.7 		"/>
        <path class="st1" d="M394.2,222.1L394.2,222.1L394.2,222.1L394.2,222.1c0,0-0.5-4.9-2.2-8.5c-1.7-3.6-2.4-6.3-4.4-7.3
			c-1.9-1-2.7-0.2-3.9,0.2c-1.2,0.5-3.6,2.7-3.9,5.8c-0.2,3.2,1.5,10.2-0.7,13.8c-2.2,3.6-2.2,7-1.9,7.8c0,0-15.8,11.2-15.8,11.2
			c0.6,6.6,1.6,14.9,0.7,15.9c0,0.1-0.1,0.1-0.2,0.2l7.9,1.5c0,0,11.5-18.5,15.6-22.1c3.6-3.2,5.9-8.7,5.9-8.7L394.2,222.1z"/>
        <path class="st10" d="M390.4,219.1c-0.3,0-0.6-0.2-0.6-0.5c0,0-0.7-4.4-1.5-6c-0.4-0.7-0.8-1.9-1.2-3c-0.5-1.2-1.1-3-1.4-3.2
			c-0.3-0.2-0.3-0.6-0.1-0.9c0.2-0.3,0.6-0.3,0.9-0.1c0.4,0.4,0.9,1.4,1.8,3.8c0.4,1.1,0.8,2.2,1.2,2.9c0.9,1.8,1.6,6.2,1.6,6.4
			C391,218.7,390.8,219,390.4,219.1C390.4,219.1,390.4,219.1,390.4,219.1z"/>
        <path class="st10" d="M387.4,219.7c-0.3,0-0.6-0.2-0.6-0.5c0-0.1-1-5.6-1.9-7.7c-1-2.2-1.7-4.6-1.7-4.7c-0.1-0.3,0.1-0.7,0.4-0.8
			c0.3-0.1,0.7,0.1,0.8,0.4c0,0,0.7,2.4,1.7,4.5c1,2.2,1.9,7.8,2,8c0.1,0.3-0.2,0.7-0.5,0.7C387.5,219.7,387.5,219.7,387.4,219.7z"
        />
        <path class="st10" d="M384,220.5c-0.3,0-0.6-0.2-0.6-0.5c0-0.1-0.7-5.7-1.1-7.7c-0.4-2-0.9-3.9-1-3.9c-0.1-0.3,0.1-0.7,0.4-0.8
			c0.3-0.1,0.7,0.1,0.8,0.4c0,0.1,0.6,2,1,4.1c0.4,2.1,1.1,7.6,1.1,7.8C384.7,220.2,384.5,220.5,384,220.5
			C384.1,220.5,384.1,220.5,384,220.5z"/>
        <path class="st0" d="M286.8,269.4c0,0-21.9-58.4-25.4-64.2c-3.6-5.8-11.6-15.2-30.7-12.6c-19.1,2.6-26.5,17.8-27.2,27.2
			c-0.6,9.4,6.5,85,8.7,86.6c2.3,1.6,22.9,15.2,56.9-0.3C269.2,306,288.7,285.5,286.8,269.4z"/>
        <path class="st11" d="M252.1,217.6c10.3,19.3,15.8,87.4,15.7,87.6 M266.9,305.1L266.9,305.1L266.9,305.1z"/>
        <path class="st0" d="M284,316.8c0,0,29.6,3.9,31.2,35c0,0,42.5-21.1,51.6-25.6c16.6-8.2,69.4-35.5,41.9-68.2
			c-13.1-15.7-33.8-2.1-54.5,8.9C343.2,272.9,284,316.8,284,316.8z"/>
        <path class="st1" d="M318.5,206.6c-0.3-4.1-9.4-12.9-9.9-13.5c-9.7-11.2-17.9-7.1-20.9-3.2c-0.7,0.2-1.4,0.5-2.2,0.8
			c-5.6,2.1-66.7-6.8-66.7,19.4c0,27.9,66.8-5.6,69.6-7.8c0.2,0.2,0.4,0.4,0.6,0.6c3,2.6,5.6,1.7,8.6,2.3c3,0.6,9.3,8.1,10,8.7
			C313.5,218.8,318.8,210.7,318.5,206.6z"/>
	</g>
        <g>
		<g>
			<g>
				<path class="st12" d="M326.4,133.3c-9.8-14.5,4.3-1.5,0.2-17.9c-2.2-8.7-19.8-10.8-23.6-7.7l-0.8,12.4c0,0,8.6,31.3-10.7,35.5
					c-19.3,4.1-35.8-2-26.2-23.4c7.6-16.7,19.8-18,15.6-27c-5.6-12.3-8-56.3,40.5-43.9c0,0,15.3-10,30.9,14.5
					c15.6,24.4,1.8,43.7,4.2,47.8c2.4,4.1,20.6,19.4,9.6,29.3c-9.6,8.6-17.3,6.7-24.5,2.8C328.9,148.6,326.4,133.3,326.4,133.3z"/>
			</g>
            <path class="st13" d="M323.2,139.2c13.5,0.5,24.1-12.6,20-29.1c-2.2-8.7,4.7-26.9-8.4-27.8c-13.1-0.9-9.9-5.8-9.9-5.8
				s-7.6,6.1-16.5,9.6s-1.5,18.6-5.2,21.7c0,0-9.5-7.9-9.1,1.3s8.3,11,8.3,11S303.3,138.4,323.2,139.2z"/>
            <path class="st14" d="M307.8,99c0,0,7.3-1.7,10.7,2.7"/>
            <path class="st14" d="M333.5,101.6c0,0,0.3-2.7,9.7-1.5"/>
            <path class="st10" d="M313.6,105.1c0,0-3.6,0.3-2.7,5.5s4.6-0.9,4.6-2.7S313.6,105.1,313.6,105.1z"/>
            <path class="st10" d="M336.4,106.3c0,0-3.6,0.3-2.7,5.5s4.6-0.9,4.6-2.7C338.3,107.2,336.4,106.3,336.4,106.3z"/>
            <path class="st14" d="M327.8,108.9c0,0-1.4,8.1,4.3,9.8c0,0,1.4,2.9-4.5,3.2"/>
            <path class="st14" d="M317.3,125.7c0,0,3.1,6.6,12.1,3.5"/>
		</g>
	</g>
</g>
</svg>
